<svg width="32" height="32" viewBox="0 0 32 32" fill="none" xmlns="http://www.w3.org/2000/svg">
<g clip-path="url(#clip0_147_233)">
<rect width="32" height="32" fill="#BDE345"/>
<rect width="32" height="32" fill="#BDE345"/>
<path d="M16.1155 29.684C13.7395 29.684 11.6995 29.276 9.99552 28.46C8.29152 27.62 6.89952 26.528 5.81952 25.184C4.73952 23.816 3.93552 22.352 3.40752 20.792C2.90352 19.208 2.65152 17.672 2.65152 16.184V15.392C2.65152 13.76 2.91552 12.152 3.44352 10.568C3.97152 8.96 4.77552 7.508 5.85552 6.212C6.95952 4.916 8.33952 3.884 9.99552 3.116C11.6755 2.324 13.6555 1.928 15.9355 1.928C18.3115 1.928 20.4115 2.372 22.2355 3.26C24.0595 4.148 25.5115 5.384 26.5915 6.968C27.6955 8.528 28.3435 10.364 28.5355 12.476H22.5955C22.4275 11.42 22.0435 10.52 21.4435 9.776C20.8435 9.032 20.0635 8.456 19.1035 8.048C18.1675 7.64 17.1115 7.436 15.9355 7.436C14.7595 7.436 13.7155 7.64 12.8035 8.048C11.8915 8.456 11.1235 9.032 10.4995 9.776C9.89952 10.52 9.43152 11.408 9.09552 12.44C8.78352 13.448 8.62752 14.576 8.62752 15.824C8.62752 17.048 8.78352 18.176 9.09552 19.208C9.43152 20.216 9.91152 21.104 10.5355 21.872C11.1835 22.616 11.9755 23.192 12.9115 23.6C13.8475 23.984 14.9155 24.176 16.1155 24.176C17.9395 24.176 19.4755 23.732 20.7235 22.844C21.9955 21.956 22.7635 20.732 23.0275 19.172H28.9315C28.7155 21.092 28.0675 22.856 26.9875 24.464C25.9315 26.048 24.4795 27.32 22.6315 28.28C20.8075 29.216 18.6355 29.684 16.1155 29.684Z" fill="white"/>
</g>
<defs>
<clipPath id="clip0_147_233">
<rect width="32" height="32" fill="white"/>
</clipPath>
</defs>
</svg>
